HIERARCHY
ROOT hip
{
	OFFSET 0.000000 0.000000 0.000000 
	CHANNELS 6 Xposition Yposition Zposition Xrotation Zrotation Yrotation
	JOINT abdomen
	{
		OFFSET 0.000000 3.402643 0.000000 
		CHANNELS 3 Xrotation Zrotation Yrotation
		JOINT chest
		{
			OFFSET 0.000000 8.438565 -0.680529 
			CHANNELS 3 Xrotation Zrotation Yrotation
			JOINT neck
			{
				OFFSET 0.000000 10.207942 -0.272212 
				CHANNELS 3 Xrotation Zrotation Yrotation
				JOINT head
				{
					OFFSET 0.000000 3.130431 0.000000 
					CHANNELS 3 Xrotation Zrotation Yrotation
					End Site
					{
						OFFSET 0.000000 3.130435 0.000000 
					}
				}
			}
			JOINT lCollar
			{
				OFFSET 3.470700 6.669187 -0.816635 
				CHANNELS 3 Yrotation Zrotation Xrotation
				JOINT lShldr
				{
					OFFSET 3.198488 0.000000 0.000000 
					CHANNELS 3 Zrotation Yrotation Xrotation
					JOINT lForeArm
					{
						OFFSET 10.139888 0.000000 0.000000 
						CHANNELS 3 Yrotation Zrotation Xrotation
						JOINT lHand
						{
							OFFSET 8.370511 0.000000 0.000000 
							CHANNELS 3 Zrotation Yrotation Xrotation
							End Site
							{
								OFFSET 4.083176 0.000000 0.000000 
							}
						}
					}
				}
			}
			JOINT rCollar
			{
				OFFSET -3.470700 6.669187 -0.816635 
				CHANNELS 3 Yrotation Zrotation Xrotation
				JOINT rShldr
				{
					OFFSET -3.198488 0.000000 0.000000 
					CHANNELS 3 Zrotation Yrotation Xrotation
					JOINT rForeArm
					{
						OFFSET -10.139888 0.000000 0.000000 
						CHANNELS 3 Yrotation Zrotation Xrotation
						JOINT rHand
						{
							OFFSET -8.370511 0.000000 0.000000 
							CHANNELS 3 Zrotation Yrotation Xrotation
							End Site
							{
								OFFSET -4.083176 0.000000 0.000000 
							}
						}
					}
				}
			}
		}
	}
	JOINT lThigh
	{
		OFFSET 5.308129 -1.633274 1.361059 
		CHANNELS 3 Xrotation Zrotation Yrotation
		JOINT lShin
		{
			OFFSET -2.041588 -20.007561 0.000000 
			CHANNELS 3 Xrotation Zrotation Yrotation
			JOINT lFoot
			{
				OFFSET 0.000000 -19.190928 -1.224953 
				CHANNELS 3 Xrotation Yrotation Zrotation
				End Site
				{
					OFFSET 0.000000 -2.449906 4.627600 
				}
			}
		}
	}
	JOINT rThigh
	{
		OFFSET -5.308129 -1.633274 1.361059 
		CHANNELS 3 Xrotation Zrotation Yrotation
		JOINT rShin
		{
			OFFSET 2.041588 -20.007561 0.000000 
			CHANNELS 3 Xrotation Zrotation Yrotation
			JOINT rFoot
			{
				OFFSET 0.000000 -19.190928 -1.224953 
				CHANNELS 3 Xrotation Yrotation Zrotation
				End Site
				{
					OFFSET 0.000000 -2.449906 4.627600 
				}
			}
		}
	}
}
MOTION
Frames: 13
Frame Time: 0.016667
3.124400 39.664768 3.124400 -5.593840 0.136706 0.781271 46.492489 7.079016 -29.060577 10.165768 -0.221230 -9.951248 -8.544920 -0.009766 -0.009767 -9.126661 17.017546 33.689465 1.992188 -2.001953 0.000341 27.223207 -49.158466 -67.483231 -32.271244 -0.697406 8.437632 -8.680754 -3.532539 29.013483 -2.001953 1.992188 0.000000 23.286438 113.415520 -2.925453 41.238041 0.593308 8.471777 204.074509 208.591232 88.297348 -45.511078 8.729294 -1.859144 60.253605 0.434659 -3.840078 -9.808738 -1.934048 -6.723951 -7.595510 -8.581910 2.286060 56.209442 -0.213260 3.669853 -43.367882 -3.141133 6.399773 
2.831399 38.342495 2.831399 -5.680067 0.126904 1.591815 47.405296 6.831897 -27.683130 10.579937 -0.202396 -9.277424 -8.544920 -0.009766 -0.009767 -10.473795 16.706314 31.563461 1.992188 -2.001953 0.000341 11.730933 -47.219795 -57.510494 -35.143951 -0.668072 8.453265 -8.680754 -3.532539 29.013483 -2.001953 1.992188 0.000000 14.014893 105.335587 -16.386639 42.722717 0.602396 8.487051 23.021414 -30.138428 -84.689583 -49.482841 9.207471 -2.793806 64.698120 0.717221 -3.948084 -10.486676 -2.190923 -7.589715 -10.784940 -7.915842 2.084313 61.803322 -0.584766 3.842872 -45.769093 -2.839135 5.709550 
2.295469 36.794834 2.295469 -5.855073 0.107336 2.294936 48.414131 6.487641 -26.097124 11.041388 -0.173883 -8.427784 -8.544920 -0.009766 -0.009767 -12.330435 16.481968 28.952414 1.992188 -2.001953 0.000341 -5.341002 -42.947968 -46.326332 -38.487301 -0.649699 8.482395 -8.680754 -3.532539 29.013483 -2.001953 1.992188 0.000000 -20.658709 98.447578 -56.556622 44.188484 0.590213 8.501688 21.485210 -31.799715 -76.510239 -54.268116 9.656980 -3.888090 69.998192 1.087188 -4.070116 -11.205957 -2.605426 -8.542542 -14.675870 -7.157312 1.812292 68.517975 -1.034213 3.976714 -48.619545 -2.614388 4.902360 
1.759572 35.247261 1.759572 -6.039814 0.097523 2.998059 49.429729 6.109529 -24.503300 11.493903 -0.145208 -7.568385 -8.544920 -0.009766 -0.009767 -14.165832 16.179115 26.344471 1.992188 -2.001953 0.000341 -19.862814 -36.700764 -37.931293 -41.827297 -0.632690 8.515405 -8.680754 -3.532539 29.013483 -2.001953 1.992188 0.000000 98.671082 79.610451 57.305969 45.664261 0.567426 8.514750 19.657099 -33.265400 -68.134575 -59.082024 10.018539 -5.048621 75.317947 1.455480 -4.157394 -11.948077 -3.018183 -9.494712 -18.556843 -6.413652 1.472402 75.259346 -1.503351 4.110049 -51.466366 -2.350515 4.078844 
1.223631 34.110256 1.223631 -6.216232 0.068213 3.750009 50.463486 5.699299 -22.862989 11.975404 -0.106691 -6.689477 -8.544920 -0.009766 -0.009767 -16.053717 15.752934 23.676922 1.992188 -2.001953 0.000341 -32.488541 -28.689100 -31.261066 -45.303898 -0.608938 8.533254 -8.680754 -3.532539 29.013483 -2.001953 1.992188 0.000000 78.589615 71.519897 30.526598 47.227230 0.565580 8.523939 17.477423 -34.540508 -59.202606 -63.174305 10.096873 -5.898870 79.711685 1.768886 -4.216081 -12.366804 -3.016392 -10.073324 -21.910595 -5.760616 1.076203 80.891953 -1.903918 4.139297 -53.750160 -2.298369 3.296740 
0.687725 32.973324 0.687725 -6.392652 0.048677 4.501959 51.494381 5.263811 -21.225758 12.449317 -0.077724 -5.810555 -8.544920 -0.009766 -0.009767 -17.896544 15.246396 21.038845 1.992188 -2.001953 0.000341 -43.244843 -19.713633 -27.012377 -48.782207 -0.585073 8.561234 -8.680754 -3.532539 29.013483 -2.001953 1.992188 0.000000 73.342354 62.337360 18.407343 48.790165 0.562368 8.541633 15.066481 -35.512127 -50.097492 -67.298248 10.126235 -6.754296 84.125282 2.099997 -4.239633 -12.790931 -3.000919 -10.646468 -25.260563 -5.126465 0.654889 86.546059 -2.284883 4.127035 -56.030319 -2.217003 2.506279 
0.382200 32.384815 0.382200 -6.469955 0.048606 5.468756 52.488255 4.847560 -19.672695 12.933985 -0.048639 -5.048834 -8.544920 -0.009766 -0.009767 -19.280424 14.583391 18.731007 1.992188 -2.001953 0.000341 -51.800556 -10.870684 -24.538095 -52.072430 -0.568428 8.593725 -8.680754 -3.532539 29.013483 -2.001953 1.992188 0.000000 73.849144 54.098129 11.245021 50.538773 0.553149 8.561626 12.602602 -36.075836 -41.188778 -69.548508 9.755680 -6.909155 86.036591 2.227369 -4.220068 -12.183144 -1.703262 -10.529675 -27.171705 -4.676652 0.016403 89.333115 -2.499965 4.120319 -56.868572 -2.333076 1.778547 
0.076712 31.796335 0.076712 -6.557019 0.048520 6.445318 53.469967 4.409265 -18.131184 13.419429 -0.019477 -4.287112 -8.544920 -0.009766 -0.009767 -20.630772 13.856030 16.460125 1.992188 -2.001953 0.000341 -59.817989 -1.781031 -23.449640 -55.347382 -0.564618 8.633119 -8.680754 -3.532539 29.013483 -2.001953 1.992188 0.000000 75.755653 45.933403 5.105151 52.287319 0.542132 8.580141 10.068849 -36.317333 -32.221157 -71.777191 9.394214 -7.010759 87.888474 2.361821 -4.214963 -11.568152 -0.384558 -10.406672 -29.090275 -4.247425 -0.623560 92.121613 -2.685191 4.107348 -57.693413 -2.430359 1.063744 
0.234483 31.583431 0.234483 -6.445797 0.067726 7.802741 54.367424 4.066912 -16.820417 13.894553 0.029233 -3.779296 -8.544920 -0.009766 -0.009767 -20.986393 13.068967 14.876297 1.992188 -2.001953 0.000341 -65.847893 5.228549 -23.588133 -58.121277 -0.551822 8.654898 -8.680754 -3.532539 29.013483 -2.001953 1.992188 0.000000 79.143623 39.834049 0.600667 54.289795 0.525994 8.598019 7.923829 -36.178005 -24.280897 -72.840889 8.778811 -6.473827 88.454170 2.392584 -4.213733 -10.684151 1.637750 -9.700349 -30.146088 -4.013487 -1.057792 93.182533 -2.783196 4.124771 -57.681759 -2.757472 0.587268 
0.392323 31.370567 0.392323 -6.333664 0.086770 9.160176 55.260143 3.707730 -15.521358 14.380877 0.068249 -3.261717 -8.544920 -0.009766 -0.009767 -21.323942 12.260278 13.308105 1.992188 -2.001953 0.000341 -72.005096 12.173307 -24.480637 -60.893356 -0.536650 8.677688 -8.680754 -3.532539 29.013483 -2.001953 1.992188 0.000000 82.847862 33.954525 -3.987338 56.301483 0.527138 8.613759 5.834271 -35.795437 -16.367104 -73.898804 8.163894 -5.921353 89.000366 2.421754 -4.212983 -9.827656 3.655476 -8.999900 -31.197655 -3.788637 -1.484009 94.235954 -2.841771 4.121550 -57.667957 -3.062278 0.136785 
1.238774 31.530836 1.238774 -5.921027 0.134177 11.064490 56.024582 3.535045 -14.579085 14.848126 0.097507 -3.164058 -8.544920 -0.009766 -0.009767 -20.186205 11.475710 12.749394 1.992188 -2.001953 0.000341 -75.723900 15.271835 -25.706505 -62.820221 -0.530620 8.698456 -8.680754 -3.532539 29.013483 -2.001953 1.992188 0.000000 86.519676 30.582548 -6.914185 58.694187 0.514871 8.633156 4.522571 -35.218086 -10.329395 -73.202675 7.177287 -3.955261 88.483841 2.381622 -4.215406 -9.727625 5.518104 -6.930608 -31.011938 -4.140012 -0.735370 93.074432 -2.792970 4.130978 -56.681274 -3.776750 0.916427 
2.085303 31.691158 2.085303 -5.507426 0.171298 12.968836 56.773285 3.359798 -13.636934 15.305708 0.126771 -3.066399 -8.544920 -0.009766 -0.009767 -19.041969 10.706675 12.179689 1.992188 -2.001953 0.000341 -79.577507 18.285370 -27.155294 -64.760590 -0.534204 8.722445 -8.680754 -3.532539 29.013483 -2.001953 1.992188 0.000000 90.259857 27.384642 -9.986225 61.086788 0.498878 8.660054 3.278007 -34.521961 -4.325929 -72.549995 6.161416 -2.011817 87.986473 2.353703 -4.216105 -9.696505 7.367287 -4.866528 -30.834740 -4.491697 0.031954 91.896362 -2.685096 4.120150 -55.699463 -4.433132 1.707786 
3.557836 32.292236 3.557836 -5.098598 0.489325 15.508399 57.457497 3.321301 -12.980968 15.781013 0.175496 -3.261733 -8.544920 -0.009766 -0.009767 -16.787619 9.908862 12.295683 1.992188 -2.001953 0.000341 -77.871902 12.616294 -27.209072 -65.083641 -0.530462 8.723711 -8.680754 -3.532539 29.013483 -2.001953 1.992188 0.000000 92.428925 27.824533 -11.031343 65.206894 0.501949 8.704762 3.621569 -33.997864 -2.149567 -69.824806 5.105921 1.703942 86.173660 2.216886 -4.224173 -11.575180 7.774209 -0.965561 -26.375971 -4.775140 0.446541 87.762138 -2.402325 4.154356 -55.994530 -4.783552 2.103612 
